<svg className="fill-black dark:fill-white" enable-background="new 0 0 1000 166" height="800" viewBox="0 0 1000 166" width="800" xmlns="http://www.w3.org/2000/svg"><path d="m125.597-.151h-105.709c-10.984 0-19.888 8.994-19.888 19.978v126.433c0 10.984 8.904 19.892 19.888 19.892h105.709c10.984 0 19.889-8.907 19.889-19.892v-126.433c-.001-10.984-8.905-19.978-19.889-19.978zm4.7 140.497c0 5.857-4.748 10.605-10.605 10.605h-93.894c-5.858 0-10.606-4.748-10.606-10.605v-114.608c0-5.857 4.748-10.604 10.606-10.604h93.894c5.857 0 10.605 4.747 10.605 10.604z"/><path d="m111.646 48.743 8.518-6.676-14.963-6.676.921-8.748-15.424 4.144-5.985-10.129-10.129 6.216-8.518-6.446-8.287 8.978-11.05-5.756-.46 9.899h-14.733l5.985 9.208-11.511 6.216 10.591 10.59-9.208 7.137 11.74 2.532.46 8.978 12.201-2.532 2.532 8.287-8.057-.46 14.273 33.839c-10.129 8.057-13.813 19.106-14.043 25.092h52.486c-.23-5.985-3.913-17.035-14.042-25.092l15.424-33.84-9.209.46 2.532-8.287 16.114 1.381-2.991-12.431 10.819-3.453zm-66.068-5.816c2.068 0 3.744 1.677 3.744 3.744 0 2.068-1.676 3.744-3.744 3.744-2.067 0-3.744-1.676-3.744-3.744 0-2.067 1.677-3.744 3.744-3.744zm.461 22.17c-3.057 0-5.534-2.478-5.534-5.534s2.478-5.534 5.534-5.534 5.534 2.478 5.534 5.534-2.477 5.534-5.534 5.534zm39.825-34.113c1.798 0 3.256 1.458 3.256 3.256s-1.458 3.255-3.256 3.255c-1.799 0-3.256-1.457-3.256-3.255s1.457-3.256 3.256-3.256zm0 10.613c3.057 0 5.534 2.479 5.534 5.535s-2.478 5.534-5.534 5.534-5.535-2.478-5.535-5.534 2.479-5.535 5.535-5.535zm-2.753 18.196c0 3.057-2.479 5.534-5.534 5.534-3.057 0-5.535-2.478-5.535-5.534s2.479-5.535 5.535-5.535 5.534 2.478 5.534 5.535zm-10.138-29.038c1.798 0 3.256 1.457 3.256 3.255s-1.458 3.256-3.256 3.256-3.256-1.458-3.256-3.256 1.458-3.255 3.256-3.255zm-.231 11.74c1.799 0 3.256 1.458 3.256 3.255 0 1.799-1.457 3.256-3.256 3.256-1.798 0-3.256-1.457-3.256-3.256 0-1.797 1.458-3.255 3.256-3.255zm-6.666 8.319c0 3.057-2.478 5.535-5.534 5.535s-5.535-2.479-5.535-5.535 2.479-5.534 5.535-5.534 5.534 2.478 5.534 5.534zm-.723 10.821c0 1.258-1.021 2.278-2.278 2.278-1.259 0-2.279-1.021-2.279-2.278 0-1.259 1.021-2.279 2.279-2.279 1.257-.001 2.278 1.02 2.278 2.279zm-7.343-29.706c3.057 0 5.534 2.478 5.534 5.534s-2.478 5.534-5.534 5.534-5.535-2.478-5.535-5.534 2.478-5.534 5.535-5.534zm-2.072 41.018c-1.798 0-3.255-1.458-3.255-3.256s1.457-3.256 3.255-3.256 3.256 1.458 3.256 3.256-1.459 3.256-3.256 3.256zm4.374 9.636 4.834 3.223 3.223-4.834-.593 20.811zm5.754 49.493c-1.381-1.611-3.684-6.676-12.661 1.842 3.453-6.906 9.208-11.971 14.963-3.453 1.611 2.303-.921 3.223-2.302 1.611zm-.469-59.852c0-3.057 2.478-5.534 5.534-5.534s5.534 2.478 5.534 5.534-2.478 5.534-5.534 5.534-5.534-2.478-5.534-5.534zm11.75 14.733 3.683.921-4.414 17.506-1.801-3.003zm14.732 46.961c-8.978-8.518-11.279-3.453-12.661-1.842-1.381 1.612-3.913.691-2.302-1.611 5.755-8.518 11.51-3.453 14.963 3.453zm-5.294-56.137c-1.799 0-3.256-1.457-3.256-3.256 0-1.798 1.457-3.255 3.256-3.255 1.798 0 3.256 1.457 3.256 3.255 0 1.799-1.458 3.256-3.256 3.256zm4.604-12.257c-1.258 0-2.279-1.021-2.279-2.278 0-1.259 1.021-2.279 2.279-2.279 1.259 0 2.279 1.021 2.279 2.279s-1.021 2.278-2.279 2.278zm8.389-27.172c1.798 0 3.256 1.458 3.256 3.255 0 1.799-1.458 3.256-3.256 3.256s-3.255-1.457-3.255-3.256c0-1.797 1.457-3.255 3.255-3.255zm-.332 22.141c-3.057 0-5.535-2.479-5.535-5.535s2.479-5.534 5.535-5.534 5.534 2.478 5.534 5.534-2.477 5.535-5.534 5.535z"/><path d="m776.242 166.151h44.199v-39.14-37.752-45.12c0-5.339 4.328-9.668 9.669-9.668 5.339 0 9.668 4.329 9.668 9.668v122.013h44.199v-141.783c0-8.788-2.302-24.521-29.725-24.521-15.396.23-25.063-1.29-36.574 15.745-.46-5.985-2.762-12.292-5.064-15.745h-40.516c1.381 5.525 4.144 24.032 4.144 34.188z"/><path d="m486.187-.151h44.199v166.303h-44.199z"/><path d="m300.229 166.151h57.505v-37.758h-41.896v-27.164h41.896v-37.753h-41.896v-25.783h41.896v-37.844h-57.505c-14.646 0-26.519 11.733-26.519 26.381v113.17c0 14.646 11.872 26.751 26.519 26.751z"/><path d="m586.054 101.284h18.423v64.867h44.212v-166.302h-44.212v63.67h-18.423v-63.67h-44.214v166.302h44.214z"/><path d="m446.334-.151c-15.396.23-25.064-1.29-36.574 15.745-.461-5.985-2.763-12.292-5.064-15.745h-40.516c1.381 5.525 4.144 24.032 4.144 34.188v132.114h44.198v-122.012c0-5.339 4.329-9.668 9.669-9.668s9.669 4.329 9.669 9.668v122.013h44.198v-141.783c0-8.788-2.302-24.52-29.724-24.52z"/><path d="m247.802 81.064c9.518-4.025 16.93-12.865 16.93-23.85v-30.755c0-14.646-11.873-26.61-26.52-26.61h-73.849v166.303h76.151c14.646 0 26.52-11.878 26.52-26.524v-33.057c0-12.12-8.13-22.341-19.232-25.507zm-22.66 37.883c0 5.213-4.228 9.439-9.44 9.439l-9.441.007v-27.164h9.441c5.213 0 9.44 4.227 9.44 9.44zm0-64.918c0 5.214-4.228 9.44-9.44 9.44l-9.441.003v-25.779h9.441c5.213 0 9.44 4.227 9.44 9.44z"/><path d="m749.94-.151h-75.937c-8.791 0-15.917 7.008-15.917 15.799v150.504h44.213v-39.075h19.344v39.075h44.214v-150.505c0-8.791-7.126-15.798-15.917-15.798zm-28.296 89.462h-19.344v-45.136c0-5.342 4.33-9.672 9.673-9.672 5.341 0 9.671 4.33 9.671 9.672z"/><path d="m984.088-.151h-75.912c-8.788 0-15.911 6.984-15.911 15.772v150.53h44.199v-39.14h19.337v39.14h44.199v-150.53c0-8.788-7.124-15.772-15.912-15.772zm-28.287 89.41h-19.337v-45.12c0-5.339 4.327-9.668 9.668-9.668 5.34 0 9.669 4.329 9.669 9.668z"/></svg>